<svg width="640" height="470" viewBox="0 0 640 470" xmlns="http://www.w3.org/2000/svg">
  <!-- SwapBackArray stacked lockup; wordmark = Fira Sans Heavy/Light, outlined -->
  <g transform="translate(320.0 192) scale(22) translate(-8 -8)">
    <g fill="none" stroke="#5fc7ff" stroke-width="0.72" stroke-linejoin="round" stroke-linecap="round">
      <rect x="1.1" y="8" width="3" height="3" rx="0.4"/>
      <rect x="8.3" y="8" width="3" height="3" rx="0.4"/>
      <rect x="11.9" y="8" width="3" height="3" rx="0.4" stroke-dasharray="0.9 0.7" opacity="0.5"/>
      <path d="M13.4 8 C 13.4 3.4 6.2 3.4 6.2 6.7"/>
    </g>
    <rect x="4.7" y="8" width="3" height="3" rx="0.4" fill="#5fc7ff"/>
    <path d="M6.2 7.95 L5.45 6.65 L6.95 6.65 Z" fill="#5fc7ff"/>
  </g>
  <g transform="translate(17.41 392) scale(0.08600 -0.08600)"><path d="M 299 716 Q 458 716 556 621 L 465 514 Q 395 570 316 570 Q 279 570 260 557 Q 241 544 241 520 Q 241 502 251.5 490.5 Q 262 479 286.5 469 Q 311 459 366 441 Q 476 406 524.5 353 Q 573 300 573 208 Q 573 141 537.5 89.5 Q 502 38 436 9 Q 370 -20 280 -20 Q 188 -20 118 9 Q 48 38 0 85 L 101 196 Q 180 128 272 128 Q 315 128 337 145.5 Q 359 163 359 191 Q 359 212 349.5 226 Q 340 240 316 252 Q 292 264 246 278 Q 125 316 77 369.5 Q 29 423 29 503 Q 29 568 64 616 Q 99 664 160.5 690 Q 222 716 299 716 Z M 1256 0 L 1029 0 L 971 358 L 916 0 L 690 0 L 583 534 L 783 534 L 815 151 L 885 534 L 1070 534 L 1126 151 L 1171 534 L 1361 534 L 1256 0 Z M 1860 173 Q 1860 145 1867 131.5 Q 1874 118 1892 111 L 1852 -16 Q 1798 -12 1764 4.5 Q 1730 21 1708 58 Q 1656 -20 1547 -20 Q 1468 -20 1419.5 27.5 Q 1371 75 1371 150 Q 1371 239 1437 286 Q 1503 333 1629 333 L 1667 333 L 1667 346 Q 1667 386 1651 400 Q 1635 414 1590 414 Q 1566 414 1528.5 406.5 Q 1491 399 1452 386 L 1409 512 Q 1458 532 1515.5 543 Q 1573 554 1620 554 Q 1746 554 1803 505.5 Q 1860 457 1860 357 L 1860 173 Z M 1608 119 Q 1626 119 1641.5 128 Q 1657 137 1667 151 L 1667 230 L 1646 230 Q 1604 230 1584 215 Q 1564 200 1564 169 Q 1564 146 1576 132.5 Q 1588 119 1608 119 Z M 2284 554 Q 2383 554 2433.5 479 Q 2484 404 2484 269 Q 2484 186 2457.5 120.5 Q 2431 55 2382.5 17.5 Q 2334 -20 2271 -20 Q 2195 -20 2147 33 L 2147 -207 L 1949 -227 L 1949 534 L 2125 534 L 2133 482 Q 2165 520 2204.5 537 Q 2244 554 2284 554 Z M 2206 121 Q 2281 121 2281 266 Q 2281 327 2273 359 Q 2265 391 2251.5 401.5 Q 2238 412 2217 412 Q 2175 412 2147 362 L 2147 158 Q 2160 138 2174 129.5 Q 2188 121 2206 121 Z M 2953 369 Q 3022 355 3065 317.5 Q 3108 280 3108 206 Q 3108 91 3024.5 45.5 Q 2941 0 2788 0 L 2544 0 L 2544 696 L 2761 696 Q 2916 696 2997.5 654.5 Q 3079 613 3079 516 Q 3079 454 3043 418.5 Q 3007 383 2953 369 Z M 2750 555 L 2750 427 L 2785 427 Q 2832 427 2851 442.5 Q 2870 458 2870 495 Q 2870 526 2849.5 540.5 Q 2829 555 2780 555 L 2750 555 Z M 2790 145 Q 2842 145 2869 161 Q 2896 177 2896 220 Q 2896 260 2871.5 278.5 Q 2847 297 2798 297 L 2750 297 L 2750 145 L 2790 145 Z M 3627 173 Q 3627 145 3634 131.5 Q 3641 118 3659 111 L 3619 -16 Q 3565 -12 3531 4.5 Q 3497 21 3475 58 Q 3423 -20 3314 -20 Q 3235 -20 3186.5 27.5 Q 3138 75 3138 150 Q 3138 239 3204 286 Q 3270 333 3396 333 L 3434 333 L 3434 346 Q 3434 386 3418 400 Q 3402 414 3357 414 Q 3333 414 3295.5 406.5 Q 3258 399 3219 386 L 3176 512 Q 3225 532 3282.5 543 Q 3340 554 3387 554 Q 3513 554 3570 505.5 Q 3627 457 3627 357 L 3627 173 Z M 3375 119 Q 3393 119 3408.5 128 Q 3424 137 3434 151 L 3434 230 L 3413 230 Q 3371 230 3351 215 Q 3331 200 3331 169 Q 3331 146 3343 132.5 Q 3355 119 3375 119 Z M 3969 554 Q 4083 554 4163 483 L 4081 368 Q 4035 405 3987 405 Q 3941 405 3919 373 Q 3897 341 3897 263 Q 3897 188 3919.5 160.5 Q 3942 133 3985 133 Q 4008 133 4028 140.5 Q 4048 148 4078 167 L 4163 46 Q 4082 -20 3974 -20 Q 3887 -20 3823 15.5 Q 3759 51 3725 115.5 Q 3691 180 3691 263 Q 3691 347 3725.5 413 Q 3760 479 3823 516.5 Q 3886 554 3969 554 Z M 4393 0 L 4195 0 L 4195 744 L 4393 764 L 4393 0 Z M 4595 300 L 4744 0 L 4525 0 L 4397 292 L 4540 534 L 4736 534 L 4595 300 Z" fill="#f2f4f8"/><g transform="translate(4729 0)"><path d="M 425 187 L 137 187 L 77 0 L 16 0 L 245 685 L 320 685 L 548 0 L 485 0 L 425 187 Z M 409 238 L 282 636 L 154 238 L 409 238 Z M 872 534 Q 904 534 924 528 L 913 473 Q 892 479 867 479 Q 814 479 782 440.5 Q 750 402 728 320 L 728 0 L 670 0 L 670 523 L 720 523 L 725 406 Q 765 534 872 534 Z M 1244 534 Q 1276 534 1296 528 L 1285 473 Q 1264 479 1239 479 Q 1186 479 1154 440.5 Q 1122 402 1100 320 L 1100 0 L 1042 0 L 1042 523 L 1092 523 L 1097 406 Q 1137 534 1244 534 Z M 1735 116 Q 1735 75 1745.5 57 Q 1756 39 1779 30 L 1766 -11 Q 1730 -4 1710.5 16 Q 1691 36 1685 77 Q 1631 -11 1522 -11 Q 1447 -11 1403.5 31.5 Q 1360 74 1360 145 Q 1360 226 1417.5 270 Q 1475 314 1577 314 L 1677 314 L 1677 365 Q 1677 428 1649 456.5 Q 1621 485 1556 485 Q 1496 485 1414 455 L 1399 499 Q 1487 534 1564 534 Q 1735 534 1735 368 L 1735 116 Z M 1532 36 Q 1626 36 1677 128 L 1677 272 L 1586 272 Q 1506 272 1464 241 Q 1422 210 1422 148 Q 1422 94 1451 65 Q 1480 36 1532 36 Z M 2113 -2 Q 2092 -63 2067 -102 Q 2042 -141 2002 -166.5 Q 1962 -192 1899 -204 L 1893 -159 Q 1945 -146 1974.5 -127 Q 2004 -108 2021.5 -79.5 Q 2039 -51 2057 0 L 2037 0 L 1855 523 L 1918 523 L 2076 43 L 2231 523 L 2292 523 L 2113 -2 Z" fill="#aeb6c2"/></g></g>
</svg>
